<svg width="413" height="478" viewBox="0 0 413 478" fill="none" xmlns="http://www.w3.org/2000/svg">
<path d="M207.273 24.5C209.4 24.615 233.397 39.3928 237.159 41.622L344.652 105.329L370.11 120.255C372.51 121.641 386.41 129.102 386.55 131.32C385.202 132.984 376.355 137.986 373.982 139.447L326.54 168.069C320.802 171.45 315.1 174.894 309.437 178.4C306.855 179.979 302 182.76 299.955 184.624L299.675 184.881C302.127 187.183 304.697 188.465 307.537 190.234L320.385 198.28L373.277 231.412C377.19 233.918 385.54 238.448 388.595 241.225C389.14 243.999 388.925 250.438 388.932 253.52L388.957 276.308L388.937 320.863C388.937 326.128 389.615 341.71 388.252 345.78C379.787 351.025 370.372 356.28 361.742 361.318C348.212 369.358 334.642 377.333 321.032 385.238C285.002 406.28 249.099 427.535 213.321 449C211.455 450.14 209.696 451.238 207.748 452.24C203.527 450.305 197.707 446.653 193.662 444.165L177.155 434.058C163.61 425.71 148.966 417.185 135.185 409.13L63.7309 367.008L36.0539 350.893C32.2624 348.663 28.1864 346.453 24.4924 344.043C23.8706 343.638 23.8986 343.353 23.8066 342.768C25.9791 340.023 49.6154 325.328 53.9894 322.475L102.72 290.473C99.1684 287.27 89.6764 281.853 85.2669 279.03L40.0651 250.403C37.2081 248.563 28.5761 243.538 26.6606 241.515C25.7869 239.309 26.1949 217.48 26.1979 213.587L26.1949 168.587L26.1714 146.342C26.1679 142.001 25.9504 135.435 26.6719 131.325C30.0804 128.82 36.3109 125.352 40.0336 123.195L59.4536 111.833L123.894 73.5645L177.523 41.652L194.665 31.4798C198.295 29.3228 203.553 26 207.273 24.5ZM206.396 328.98C207.046 329.23 207.693 329.455 208.345 329.135C210.568 328.043 212.849 326.475 214.949 325.165L227.255 317.538L255.415 300.335C259.685 297.74 263.975 295.355 268.177 292.638C263.417 288.98 258.835 286.415 253.76 283.255L226.374 266.485L146.099 217.109L125.212 204.406C123.521 203.385 112.844 197.363 112.598 196.077C111.772 191.753 112.556 182.199 112.259 177.949C111.667 169.483 113.277 109.725 111.737 107.511L111.319 107.538C104.528 110.814 97.7474 115.561 91.0994 119.28C82.8256 123.909 74.5621 129.04 66.4334 133.899C63.2711 135.79 50.8851 142.461 49.1554 144.807C48.7694 146.987 48.9104 152.364 48.9204 154.77L48.9731 171.418L48.9964 206.101C48.9899 209.594 48.5504 227.5 49.5174 229.867C51.4396 231.627 61.0771 237.308 64.0709 239.2L98.7209 261.158L176.318 309.973L196.367 322.61C199.326 324.493 203.472 327.383 206.396 328.98ZM147.1 191.449L147.377 191.655C150.152 193.704 153.679 195.629 156.605 197.542C164.492 202.699 172.66 207.372 180.687 212.314L264.335 263.653L287.797 278.065C289.742 279.265 301.472 286.013 302.537 288.315C302.827 288.945 302.742 296.495 302.742 297.91L302.732 316.67L302.757 352.585C302.76 357.605 303.022 365.135 302.762 369.968C303.715 369.553 305.075 369.043 305.87 368.435L342.01 347.073L355.63 339.108C357.732 337.903 365.582 333.815 365.727 332.538C366.45 326.143 366.157 312.893 366.175 306.773L366.217 273.953C366.212 267.51 366.35 260.045 365.97 253.658C362.855 250.82 357.652 247.956 353.912 245.676C348.65 242.451 343.415 239.183 338.207 235.874C329.517 230.295 320.79 225.015 312.062 219.54L242.904 176.197C231.566 169.062 220.006 161.957 208.625 154.875C208.237 154.633 207.724 154.466 207.264 154.464C204.167 155.847 200.846 158.121 197.932 159.953C193.478 162.773 188.999 165.557 184.498 168.303L160.321 182.932C157.551 184.61 149.118 189.579 147.1 191.449ZM123.462 303.665C120.179 305.355 114.683 309.185 111.452 311.285C102.652 317.018 93.9029 322.83 85.2064 328.72C81.7084 331.085 78.1924 333.423 74.6584 335.733C71.9084 337.545 68.1526 339.803 65.8931 342.093C68.2751 344.59 74.6401 347.765 77.8886 349.713L104.275 365.425L160.709 398.643L186.162 413.665C189.633 415.758 205.148 425.403 207.978 426.163C210.661 424.8 213.368 422.88 216.045 421.365C223.285 417.265 230.246 412.653 237.564 408.693C239.426 407.685 242.651 405.305 244.399 404.525C255.772 397.698 267.305 391.088 278.67 384.245C279.107 383.983 279.585 383.578 279.62 383.055C280.315 377.793 279.997 370.72 279.997 365.343L280.007 325.325C280.005 320.928 279.675 315.863 279.78 311.678C274.665 314.475 268.972 318.248 263.872 321.338L226.516 344.15L214.515 351.515C212.463 352.775 209.991 354.48 207.848 355.445C203.906 354.028 194.852 347.68 190.801 345.16L151.574 320.658C147.738 318.238 125.627 303.868 123.462 303.665ZM207.482 50.022C204.478 51.2148 200.535 53.8378 197.652 55.5903L184.738 63.3255C173.301 70.0973 161.931 76.9808 150.629 83.9758C147.765 85.7128 137.093 91.442 135.301 93.555C134.876 95.7845 134.975 99.9613 134.972 102.355L134.969 115.016L134.999 152.385C135.006 158.588 135.187 165.771 134.989 171.915L135.319 171.766C139.18 169.999 142.861 167.361 146.516 165.173C161.542 156.175 176.402 146.88 191.392 137.82C196.011 135.028 202.287 130.509 207.344 128.973C209.079 128.446 220.043 135.804 222.357 137.242L247.364 152.737C253.422 156.348 259.45 160.156 265.467 163.801C267.82 165.227 275.282 170.565 277.405 171.249C280.852 170.111 286.552 166.039 289.952 163.977L315.64 148.4L331.712 138.675C335.19 136.611 340.64 133.512 343.79 131.148C339.605 128.102 335.43 125.937 331.04 123.297L301.367 105.76C276.787 90.929 252.132 76.224 227.401 61.646C225.215 60.376 208.262 50.0158 207.482 50.022Z" fill="#FEFEFE"/>
</svg>
